<svg xmlns="http://www.w3.org/2000/svg" viewBox="0 0 900 560">
<defs>
 <radialGradient id="bg"><stop stop-color="#24113f"/><stop offset="1" stop-color="#09070e"/></radialGradient>
 <filter id="glow"><feGaussianBlur stdDeviation="8" result="b"/><feMerge><feMergeNode in="b"/><feMergeNode in="SourceGraphic"/></feMerge></filter>
 <linearGradient id="heart" x1="0" y1="0" x2="1" y2="1"><stop stop-color="#d49aff"/><stop offset=".55" stop-color="#8b45ff"/><stop offset="1" stop-color="#5e21c7"/></linearGradient>
</defs>
<rect width="900" height="560" rx="28" fill="url(#bg)"/>
<g opacity=".22" stroke="#a855f7"><path d="M0 90H900M0 180H900M0 270H900M0 360H900M0 450H900"/><path d="M100 0V560M200 0V560M300 0V560M400 0V560M500 0V560M600 0V560M700 0V560M800 0V560"/></g>
<path d="M420 410 C385 375 300 318 300 235 C300 170 375 143 420 205 C465 143 540 170 540 235 C540 318 455 375 420 410Z" fill="none" stroke="url(#heart)" stroke-width="15" filter="url(#glow)"/>
<path d="M355 275 C370 245 390 225 420 245 C450 225 470 245 485 275" fill="none" stroke="#d9b4ff" stroke-width="5" opacity=".7"/>
<path d="M80 470 C130 470 150 470 175 470 C190 470 194 415 207 415 C220 415 224 510 238 510 C252 510 256 445 269 445 C282 445 288 470 315 470 L820 470" fill="none" stroke="#b66bff" stroke-width="3" filter="url(#glow)"/>
<circle cx="420" cy="245" r="7" fill="#fff"/><text x="54" y="68" fill="#c7a5f7" font-family="Arial" font-size="17" letter-spacing="4">CARDIAC AI · ECHOCARDIOGRAPHY</text>
<text x="54" y="515" fill="#8e7b9f" font-family="Arial" font-size="13" letter-spacing="3">LV ANALYSIS · MEDICAL IMAGING</text>
</svg>
